<?xml version="1.0" encoding="UTF-8"?>
<svg xmlns="http://www.w3.org/2000/svg" width="47" height="53" viewBox="0 0 47 53" fill="none">
  <path fill-rule="evenodd" clip-rule="evenodd" d="M46.1684 48.3579L46.2048 18.1296C46.2412 11.6966 43.2191 8.55309 38.9227 8.51655C36.1919 8.48 33.9345 10.271 32.5873 13.0855C31.8955 9.72275 32.7694 6.54277 35.136 5.0807C37.2114 3.72828 39.9786 4.05723 42.4909 5.62897C42.7094 5.77517 42.855 5.84828 42.7822 5.66552C40.7796 2.26621 37.6848 0.0365428 34.1165 0.0365428C28.1088 0.0365428 23.2663 6.21379 23.1206 13.8531C23.0114 6.21379 18.2052 0 12.1975 0C8.62925 0 5.49796 2.1931 3.49539 5.59241C3.42259 5.77517 3.60464 5.70208 3.82309 5.55587C6.29902 4.02069 9.0662 3.69172 11.178 5.04413C13.5447 6.5062 14.3821 9.68621 13.6539 13.049C12.3431 10.2345 10.0857 8.44344 7.35488 8.44344C3.05848 8.51655 0.0364015 11.6234 0.0364015 18.0566L0 48.2848C5.89847 46.2014 12.598 38.7083 15.1831 34.98C16.8944 41.1207 20.317 47.7731 23.0478 52.9269V53L23.0842 52.9635V52.9269C25.815 47.7731 29.274 41.1572 31.0216 35.0166C35.3545 41.9248 40.2699 46.2379 46.1684 48.3579ZM35.0996 3.14344C35.6828 3.14344 36.1555 2.66887 36.1555 2.08345C36.1555 1.49803 35.6828 1.02344 35.0996 1.02344C34.5165 1.02344 34.0437 1.49803 34.0437 2.08345C34.0437 2.66887 34.5165 3.14344 35.0996 3.14344ZM10.8503 3.25309C11.4335 3.25309 11.9062 2.77852 11.9062 2.1931C11.9062 1.60766 11.4335 1.13309 10.8503 1.13309C10.2671 1.13309 9.79441 1.60766 9.79441 2.1931C9.79441 2.77852 10.2671 3.25309 10.8503 3.25309Z" fill="#000000"></path>
</svg>
